<svg width="361" height="97" viewBox="0 0 361 97" fill="none" xmlns="http://www.w3.org/2000/svg">
<path d="M4.40341 19.8182H21.8182L36.5909 55.8409H37.2727L52.0455 19.8182H69.4602V78H55.767V42.2614H55.2841L41.3068 77.6307H32.5568L18.5795 42.0625H18.0966V78H4.40341V19.8182ZM90.8168 78H75.7031L95.3338 19.8182H114.055L133.686 78H118.572L104.908 34.4773H104.453L90.8168 78ZM88.7997 55.1023H120.391V65.7841H88.7997V55.1023ZM139.95 78V19.8182H163.984C168.34 19.8182 172.1 20.6042 175.263 22.1761C178.445 23.7292 180.897 25.964 182.621 28.8807C184.344 31.7784 185.206 35.2159 185.206 39.1932C185.206 43.2273 184.325 46.6553 182.564 49.4773C180.803 52.2803 178.303 54.4205 175.064 55.8977C171.825 57.3561 167.99 58.0852 163.558 58.0852H148.359V47.0057H160.945C163.066 47.0057 164.837 46.7311 166.257 46.1818C167.696 45.6136 168.786 44.7614 169.524 43.625C170.263 42.4697 170.632 40.9924 170.632 39.1932C170.632 37.3939 170.263 35.9072 169.524 34.733C168.786 33.5398 167.696 32.6496 166.257 32.0625C164.818 31.4564 163.047 31.1534 160.945 31.1534H154.013V78H139.95ZM172.706 51.4091L187.195 78H171.854L157.649 51.4091H172.706ZM245.732 40.8977H231.527C231.338 39.4394 230.949 38.1231 230.362 36.9489C229.775 35.7746 228.999 34.7708 228.033 33.9375C227.067 33.1042 225.921 32.4697 224.595 32.0341C223.288 31.5795 221.839 31.3523 220.249 31.3523C217.427 31.3523 214.993 32.0436 212.947 33.4261C210.921 34.8087 209.358 36.8068 208.26 39.4205C207.18 42.0341 206.641 45.197 206.641 48.9091C206.641 52.7727 207.19 56.0114 208.288 58.625C209.406 61.2197 210.968 63.1799 212.976 64.5057C215.002 65.8125 217.398 66.4659 220.163 66.4659C221.716 66.4659 223.127 66.267 224.396 65.8693C225.684 65.4716 226.811 64.8939 227.777 64.1364C228.762 63.3598 229.567 62.4223 230.192 61.3239C230.836 60.2064 231.281 58.947 231.527 57.5455L245.732 57.6307C245.485 60.2064 244.737 62.7443 243.487 65.2443C242.256 67.7443 240.561 70.0265 238.402 72.0909C236.243 74.1364 233.61 75.7652 230.504 76.9773C227.417 78.1894 223.875 78.7955 219.879 78.7955C214.614 78.7955 209.898 77.6402 205.732 75.3295C201.584 73 198.307 69.6098 195.902 65.1591C193.497 60.7083 192.294 55.2917 192.294 48.9091C192.294 42.5076 193.516 37.0814 195.959 32.6307C198.402 28.1799 201.707 24.7992 205.874 22.4886C210.04 20.178 214.709 19.0227 219.879 19.0227C223.402 19.0227 226.66 19.5152 229.652 20.5C232.644 21.4659 235.277 22.8864 237.55 24.7614C239.822 26.6174 241.669 28.8996 243.089 31.608C244.51 34.3163 245.391 37.4129 245.732 40.8977ZM264.879 78H249.766L269.396 19.8182H288.118L307.749 78H292.635L278.97 34.4773H278.516L264.879 78ZM262.862 55.1023H294.453V65.7841H262.862V55.1023ZM343.665 37.2614C343.475 35.178 342.633 33.5587 341.136 32.4034C339.659 31.2292 337.547 30.642 334.801 30.642C332.983 30.642 331.468 30.8788 330.256 31.3523C329.044 31.8258 328.134 32.4792 327.528 33.3125C326.922 34.1269 326.61 35.0644 326.591 36.125C326.553 36.9962 326.723 37.7633 327.102 38.4261C327.5 39.089 328.068 39.6761 328.807 40.1875C329.564 40.6799 330.473 41.1155 331.534 41.4943C332.595 41.8731 333.788 42.2045 335.114 42.4886L340.114 43.625C342.992 44.25 345.53 45.0833 347.727 46.125C349.943 47.1667 351.799 48.4072 353.295 49.8466C354.811 51.286 355.956 52.9432 356.733 54.8182C357.509 56.6932 357.907 58.7955 357.926 61.125C357.907 64.7992 356.979 67.9527 355.142 70.5852C353.305 73.2178 350.663 75.2348 347.216 76.6364C343.788 78.0379 339.65 78.7386 334.801 78.7386C329.934 78.7386 325.691 78.0095 322.074 76.5511C318.456 75.0928 315.644 72.8769 313.636 69.9034C311.629 66.9299 310.597 63.1705 310.54 58.625H324.006C324.119 60.5 324.621 62.0625 325.511 63.3125C326.402 64.5625 327.623 65.5095 329.176 66.1534C330.748 66.7973 332.566 67.1193 334.631 67.1193C336.525 67.1193 338.134 66.8636 339.46 66.3523C340.805 65.8409 341.837 65.1307 342.557 64.2216C343.277 63.3125 343.646 62.2708 343.665 61.0966C343.646 59.9981 343.305 59.0606 342.642 58.2841C341.979 57.4886 340.956 56.8068 339.574 56.2386C338.21 55.6515 336.468 55.1117 334.347 54.6193L328.267 53.1989C323.229 52.0436 319.261 50.178 316.364 47.6023C313.466 45.0076 312.027 41.5038 312.045 37.0909C312.027 33.4924 312.992 30.339 314.943 27.6307C316.894 24.9223 319.593 22.8106 323.04 21.2955C326.487 19.7803 330.417 19.0227 334.83 19.0227C339.337 19.0227 343.248 19.7898 346.562 21.3239C349.896 22.839 352.481 24.9697 354.318 27.7159C356.155 30.4621 357.093 33.6439 357.131 37.2614H343.665Z" fill="#CACACA" fill-opacity="0.6"/>
<path d="M70.7521 30.6364H81.6364L90.8693 53.1506H91.2955L100.528 30.6364H111.413V67H102.854V44.6634H102.553L93.8168 66.7692H88.348L79.6122 44.5391H79.3104V67H70.7521V30.6364ZM124.76 67H115.314L127.584 30.6364H139.285L151.554 67H142.108L133.567 39.7983H133.283L124.76 67ZM123.5 52.6889H143.244V59.3651H123.5V52.6889ZM155.469 67V30.6364H170.49C173.213 30.6364 175.562 31.1276 177.539 32.1101C179.528 33.0807 181.061 34.4775 182.138 36.3004C183.215 38.1115 183.754 40.2599 183.754 42.7457C183.754 45.267 183.203 47.4096 182.102 49.1733C181.002 50.9252 179.439 52.2628 177.415 53.1861C175.391 54.0975 172.994 54.5533 170.224 54.5533H160.725V47.6286H168.59C169.916 47.6286 171.023 47.4569 171.911 47.1136C172.81 46.7585 173.491 46.2259 173.953 45.5156C174.414 44.7936 174.645 43.8703 174.645 42.7457C174.645 41.6212 174.414 40.692 173.953 39.9581C173.491 39.2124 172.81 38.656 171.911 38.2891C171.011 37.9103 169.904 37.7209 168.59 37.7209H164.258V67H155.469ZM175.941 50.3807L184.997 67H175.409L166.531 50.3807H175.941ZM221.582 43.8111H212.704C212.586 42.8996 212.343 42.0769 211.976 41.343C211.609 40.6091 211.124 39.9818 210.52 39.4609C209.917 38.9401 209.201 38.5436 208.372 38.2713C207.555 37.9872 206.65 37.8452 205.655 37.8452C203.892 37.8452 202.371 38.2772 201.092 39.1413C199.826 40.0054 198.849 41.2543 198.162 42.8878C197.488 44.5213 197.15 46.4981 197.15 48.8182C197.15 51.233 197.494 53.2571 198.18 54.8906C198.879 56.5123 199.855 57.7375 201.11 58.5661C202.376 59.3828 203.874 59.7912 205.602 59.7912C206.573 59.7912 207.455 59.6669 208.248 59.4183C209.053 59.1697 209.757 58.8087 210.361 58.3352C210.976 57.8499 211.479 57.264 211.87 56.5774C212.272 55.879 212.55 55.0919 212.704 54.2159L221.582 54.2692C221.428 55.879 220.961 57.4652 220.18 59.0277C219.41 60.5902 218.351 62.0166 217.001 63.3068C215.652 64.5852 214.006 65.6032 212.065 66.3608C210.136 67.1184 207.922 67.4972 205.425 67.4972C202.134 67.4972 199.186 66.7751 196.582 65.331C193.99 63.875 191.942 61.7562 190.439 58.9744C188.935 56.1927 188.184 52.8073 188.184 48.8182C188.184 44.8172 188.947 41.4259 190.474 38.6442C192.001 35.8625 194.067 33.7495 196.671 32.3054C199.275 30.8613 202.193 30.1392 205.425 30.1392C207.626 30.1392 209.662 30.447 211.532 31.0625C213.403 31.6662 215.048 32.554 216.469 33.7259C217.889 34.8859 219.043 36.3123 219.931 38.005C220.819 39.6977 221.369 41.633 221.582 43.8111ZM233.55 67H224.104L236.373 30.6364H248.074L260.343 67H250.897L242.356 39.7983H242.072L233.55 67ZM232.289 52.6889H252.033V59.3651H232.289V52.6889ZM282.79 41.5384C282.672 40.2363 282.145 39.2242 281.21 38.5021C280.287 37.7682 278.967 37.4013 277.251 37.4013C276.114 37.4013 275.167 37.5492 274.41 37.8452C273.652 38.1411 273.084 38.5495 272.705 39.0703C272.326 39.5793 272.131 40.1652 272.119 40.8281C272.096 41.3726 272.202 41.852 272.439 42.2663C272.688 42.6806 273.043 43.0476 273.504 43.3672C273.978 43.675 274.546 43.9472 275.209 44.1839C275.872 44.4207 276.617 44.6278 277.446 44.8054L280.571 45.5156C282.37 45.9062 283.956 46.4271 285.33 47.0781C286.714 47.7292 287.875 48.5045 288.81 49.4041C289.757 50.3037 290.473 51.3395 290.958 52.5114C291.443 53.6832 291.692 54.9972 291.704 56.4531C291.692 58.7495 291.112 60.7204 289.964 62.3658C288.816 64.0111 287.164 65.2718 285.01 66.1477C282.867 67.0237 280.281 67.4616 277.251 67.4616C274.209 67.4616 271.557 67.0059 269.296 66.0945C267.035 65.183 265.277 63.7981 264.023 61.9396C262.768 60.0812 262.123 57.7315 262.087 54.8906H270.504C270.575 56.0625 270.888 57.0391 271.445 57.8203C272.001 58.6016 272.764 59.1934 273.735 59.5959C274.718 59.9983 275.854 60.1996 277.144 60.1996C278.328 60.1996 279.334 60.0398 280.163 59.7202C281.003 59.4006 281.648 58.9567 282.098 58.3885C282.548 57.8203 282.779 57.1693 282.79 56.4354C282.779 55.7488 282.566 55.1629 282.151 54.6776C281.737 54.1804 281.098 53.7543 280.234 53.3991C279.381 53.0322 278.292 52.6948 276.967 52.3871L273.167 51.4993C270.018 50.7772 267.538 49.6113 265.727 48.0014C263.916 46.3797 263.017 44.1899 263.028 41.4318C263.017 39.1828 263.62 37.2119 264.839 35.5192C266.059 33.8265 267.746 32.5066 269.9 31.5597C272.054 30.6127 274.51 30.1392 277.268 30.1392C280.086 30.1392 282.53 30.6186 284.602 31.5774C286.685 32.5244 288.301 33.8561 289.449 35.5724C290.597 37.2888 291.183 39.2775 291.207 41.5384H282.79Z" fill="black"/>
</svg>
